<?xml version="1.0" standalone="no"?>
<!DOCTYPE svg PUBLIC "-//W3C//DTD SVG 20010904//EN"
 "http://www.w3.org/TR/2001/REC-SVG-20010904/DTD/svg10.dtd">
<svg version="1.0" xmlns="http://www.w3.org/2000/svg"
 width="1200.000000pt" height="1200.000000pt" viewBox="0 0 1200.000000 1200.000000"
 preserveAspectRatio="xMidYMid meet">
<metadata>
Created by potrace 1.14, written by Peter Selinger 2001-2017
</metadata>
<g transform="translate(0.000000,1200.000000) scale(0.100000,-0.100000)"
fill="#000000" stroke="none">
<path d="M865 10523 c17 -16 69 -62 115 -103 47 -41 90 -79 96 -85 6 -5 48
-44 94 -85 46 -41 88 -80 94 -85 6 -6 74 -66 151 -135 77 -69 149 -134 160
-145 12 -11 52 -47 89 -80 38 -33 78 -69 90 -80 12 -11 60 -54 106 -95 46 -41
94 -84 106 -95 30 -28 73 -66 184 -165 52 -46 100 -89 106 -95 6 -5 49 -44 95
-85 46 -41 106 -95 134 -120 27 -25 55 -49 61 -55 6 -5 48 -44 94 -85 46 -41
93 -83 104 -93 39 -34 101 -89 143 -128 l42 -39 -63 -162 c-55 -139 -106 -269
-263 -668 -14 -36 -29 -74 -34 -85 -5 -11 -47 -117 -93 -235 -46 -118 -114
-291 -151 -385 -37 -93 -92 -233 -122 -310 -30 -77 -60 -153 -67 -170 -7 -16
-28 -68 -46 -115 -17 -47 -36 -94 -41 -105 -5 -11 -47 -117 -93 -235 -82 -210
-226 -576 -329 -835 -28 -71 -52 -132 -53 -135 0 -3 -5 -16 -11 -30 -18 -43
-216 -542 -233 -590 -9 -25 -22 -56 -27 -70 -6 -14 -43 -108 -83 -210 -40
-102 -81 -204 -91 -227 -10 -23 -19 -44 -19 -47 0 -3 -42 -112 -94 -243 -52
-131 -119 -301 -149 -378 -31 -77 -99 -250 -152 -385 -111 -281 -187 -474
-240 -610 -20 -52 -40 -104 -45 -115 -4 -11 -15 -36 -23 -55 -8 -19 -54 -136
-102 -260 -49 -124 -114 -290 -146 -370 -31 -80 -56 -147 -54 -150 4 -7 7523
-4 7617 3 42 3 120 9 175 12 54 4 109 8 123 10 14 2 57 7 95 11 39 3 77 8 85
9 8 1 40 6 70 10 30 4 64 9 75 11 11 2 34 7 50 9 17 3 53 10 80 15 349 65 685
206 930 389 398 296 681 729 967 1476 27 72 51 135 52 140 2 6 6 17 9 25 22
52 58 179 77 265 21 97 24 116 35 180 3 17 7 41 10 55 36 182 49 319 49 550 1
270 -3 320 -48 529 -12 57 -62 193 -103 281 -66 141 -163 280 -285 405 -59 60
-106 110 -105 110 1 1 44 19 96 40 312 127 568 309 802 571 85 95 279 374 279
402 0 6 4 12 8 14 29 11 226 439 332 718 34 91 66 174 70 185 4 11 13 36 20
55 7 19 16 44 21 55 28 66 121 367 139 450 53 256 67 375 67 580 1 458 -154
817 -462 1072 -60 49 -114 89 -147 108 -46 27 -166 92 -188 102 -14 6 -42 19
-64 28 -44 19 -201 74 -231 81 -11 2 -56 13 -100 23 -85 21 -111 26 -184 37
-25 4 -53 8 -61 9 -9 2 -40 6 -70 9 -30 4 -77 10 -105 13 -27 4 -2165 9 -4750
10 l-4700 3 30 -27z m7895 -2226 c0 -4 -5 -15 -10 -25 -6 -9 -51 -123 -101
-252 -50 -129 -118 -305 -151 -390 -33 -85 -75 -193 -93 -240 -49 -128 -72
-174 -108 -207 -37 -36 -90 -67 -131 -77 -26 -6 -2736 -10 -2741 -3 -3 2 57
160 230 612 49 127 107 280 130 340 l42 110 -57 57 c-31 31 -61 63 -68 70 -9
11 238 14 1524 13 844 0 1534 -3 1534 -8z m-1195 -3224 c-9 -21 -59 -148 -111
-283 -52 -135 -98 -254 -103 -265 -5 -11 -16 -38 -24 -60 -9 -22 -45 -114 -80
-205 -35 -91 -82 -210 -102 -264 -44 -113 -79 -158 -157 -202 l-53 -29 -1402
-1 c-772 0 -1403 0 -1403 1 0 0 18 48 41 106 22 57 52 133 65 169 14 36 30 74
35 85 4 11 42 106 83 210 174 446 268 682 281 712 8 17 15 38 15 47 0 15 129
16 1465 16 l1465 0 -15 -37z"/>
</g>
</svg>
